<svg width="745" height="431" viewBox="0 0 745 431" fill="none" xmlns="http://www.w3.org/2000/svg">
<path d="M88.2119 398.766L56.4113 405.222L0.955627 241.399L115.907 42.2977L285.217 7.31494L295.996 39.5285M88.2119 398.766L225.319 370.935L340.27 171.834L295.996 39.5285M88.2119 398.766L42.6331 265.461L157.584 66.3602L295.996 39.5285M88.2119 398.766L98.7833 429.685L267.691 395.399L382.642 196.298L328.283 32.1795L295.996 39.5285M449.33 393.019L417.529 399.474L362.074 235.651L477.025 36.5505L646.335 1.56775L657.114 33.7813M449.33 393.019L586.437 365.188L701.388 166.087L657.114 33.7813M449.33 393.019L403.751 259.714L518.702 60.613L657.114 33.7813M449.33 393.019L459.901 423.938L628.809 389.651L743.76 190.551L689.401 26.4323L657.114 33.7813M268.33 396.019L236.529 402.474L181.074 238.651L296.025 39.5505L465.335 4.56775L476.114 36.7813M268.33 396.019L405.437 368.188L520.388 169.087L476.114 36.7813M268.33 396.019L222.751 262.714L337.702 63.613L476.114 36.7813M268.33 396.019L278.901 426.938L447.809 392.651L562.76 193.551L508.401 29.4323L476.114 36.7813" stroke="white"/>
</svg>
